Coordinates
version=1
nRows=14
nColumns=40
inDegrees=yes

Units are S.I. units (second, meters, Newtons, ...)
Angles are in degrees.

endheader
time	pelvis_tilt	pelvis_list	pelvis_rotation	pelvis_tx	pelvis_ty	pelvis_tz	hip_flexion_r	hip_adduction_r	hip_rotation_r	knee_angle_r	knee_angle_r_beta	ankle_angle_r	subtalar_angle_r	mtp_angle_r	hip_flexion_l	hip_adduction_l	hip_rotation_l	knee_angle_l	knee_angle_l_beta	ankle_angle_l	subtalar_angle_l	mtp_angle_l	lumbar_extension	lumbar_bending	lumbar_rotation	arm_flex_r	arm_add_r	arm_rot_r	elbow_flex_r	pro_sup_r	wrist_flex_r	wrist_dev_r	arm_flex_l	arm_add_l	arm_rot_l	elbow_flex_l	pro_sup_l	wrist_flex_l	wrist_dev_l
     24.02000000	     -2.74358476	     -4.77624221	      3.90126118	      0.87062565	      0.93081872	      0.49515853	     12.20927236	      2.73007206	    -15.55294961	     17.49989777	     17.49989777	      9.63666966	     -3.37471152	     -4.71603132	     28.08954732	     -9.46350509	      4.37220374	     64.02944734	     64.02944734	      8.84313385	    -17.48342669	     10.08209018	     -9.04703316	      6.63273810	      1.80340272	     14.05228694	    -17.17815721	     -3.99629590	     58.85426231	     45.75869556	      0.00000000	      0.00000000	      2.97788425	     -7.40921071	     -4.65890131	     37.40654434	     45.51609714	      0.00000000	      0.00000000
     24.03407143	     -2.91238600	     -4.64396731	      4.12331266	      0.86881808	      0.93132552	      0.49606042	     11.64289407	      2.74452476	    -15.71466877	     16.84945084	     16.84945084	      9.72075284	     -3.17800115	     -4.82955555	     29.47547640	     -9.37032100	      3.92845840	     61.42615792	     61.42615792	      9.22854965	    -17.80772309	     10.26019206	     -9.08638946	      6.35180568	      1.55585952	     16.47732774	    -17.02564614	     -3.96744428	     60.75308275	     45.69861379	      0.00000000	      0.00000000	      1.89450013	     -7.26924157	     -4.49863124	     35.54913517	     45.48993227	      0.00000000	      0.00000000
     24.04814286	     -3.08622999	     -4.56450800	      4.35667338	      0.86707443	      0.93165683	      0.49686700	     11.07283999	      2.79411115	    -16.00801757	     16.17833646	     16.17833646	      9.69420059	     -2.83892796	     -5.31792261	     30.62727840	     -9.31633032	      3.43714103	     58.40767232	     58.40767232	      9.38755097	    -17.96684202	      9.85785760	     -9.11169733	      6.16558973	      1.89765008	     18.15395233	    -17.71365945	     -3.20166224	     64.04353541	     45.55429364	      0.00000000	      0.00000000	      1.71878426	     -6.83802818	     -4.44525287	     32.19957041	     45.52323060	      0.00000000	      0.00000000
     24.06221429	     -3.21118649	     -4.44431886	      4.55417536	      0.86538349	      0.93203423	      0.49764271	     10.49140078	      2.82928392	    -16.07737909	     15.58585561	     15.58585561	      9.81627378	     -2.74778528	     -5.27623294	     31.45366370	     -9.14294107	      2.94484553	     55.00525595	     55.00525595	      9.68484230	    -18.04028804	     10.12710672	     -9.21643480	      5.90477812	      1.89670746	     20.51673856	    -17.65932425	     -3.43236114	     65.90965924	     45.50883085	      0.00000000	      0.00000000	      0.60846645	     -6.68562405	     -4.36613268	     31.13736787	     45.50350735	      0.00000000	      0.00000000
     24.07628571	     -3.34643447	     -4.41317048	      4.78151646	      0.86379014	      0.93220320	      0.49828080	      9.92739163	      2.93259788	    -16.29508494	     15.00194276	     15.00194276	      9.96036888	     -2.48856486	     -5.32634032	     32.10351693	     -8.97033797	      2.57743889	     51.32808035	     51.32808035	      9.96249035	    -17.88481903	     10.26405956	     -9.28798041	      5.76744402	      1.78674964	     22.80031129	    -17.61483276	     -3.46698083	     68.24050423	     45.44048611	      0.00000000	      0.00000000	     -0.42395013	     -6.50820164	     -4.25652724	     29.71195417	     45.48436853	      0.00000000	      0.00000000
     24.09035714	     -3.50340440	     -4.38623334	      4.99257418	      0.86226818	      0.93218480	      0.49873410	      9.43671837	      2.97771710	    -16.68103555	     14.52091527	     14.52091527	     10.06937135	     -1.97106476	     -5.66358578	     32.55562818	     -8.77559635	      2.17871834	     47.32946146	     47.32946146	      9.74049367	    -17.61711076	      9.26461910	     -9.34398616	      5.68687133	      2.36916236	     24.18758571	    -18.43501698	     -3.11362270	     71.91736999	     45.31223194	      0.00000000	      0.00000000	     -0.52621853	     -6.17126771	     -4.09995518	     27.05396215	     45.51183365	      0.00000000	      0.00000000
     24.10442857	     -3.66733914	     -4.32123713	      5.17099082	      0.86084479	      0.93208784	      0.49907785	      9.00388489	      3.01260659	    -16.75103520	     14.12762399	     14.12762399	     10.27227602	     -1.88905821	     -5.68222667	     32.83549131	     -8.44952683	      1.88419361	     43.19759275	     43.19759275	     10.00897834	    -16.97123821	      9.48962895	     -9.33290198	      5.50071837	      2.39060454	     26.36450734	    -18.33946184	     -3.37116729	     73.61134148	     45.27499800	      0.00000000	      0.00000000	     -1.56753025	     -6.08247200	     -4.02765178	     26.30139544	     45.49087413	      0.00000000	      0.00000000
     24.11850000	     -3.84510582	     -4.31137918	      5.36001266	      0.85948611	      0.93181882	      0.49923954	      8.60650015	      3.07284088	    -16.92952066	     13.77638687	     13.77638687	     10.48772695	     -1.68896836	     -5.75288322	     33.02079602	     -8.13853346	      1.67407626	     39.00792159	     39.00792159	     10.23990739	    -15.91056522	      9.55414229	     -9.29466007	      5.40152711	      2.37000205	     28.46797705	    -18.25182634	     -3.46340315	     75.52661713	     45.22484135	      0.00000000	      0.00000000	     -2.55359022	     -5.99311074	     -3.92962940	     25.57108586	     45.46557273	      0.00000000	      0.00000000
     24.13257143	     -3.99969180	     -4.41382315	      5.59983834	      0.85829074	      0.93139276	      0.49914099	      8.14857092	      3.21385781	    -17.39503734	     13.36973784	     13.36973784	     10.71865437	     -1.06426274	     -5.93208382	     33.08274725	     -7.89478729	      1.57608719	     34.78480335	     34.78480335	     10.07900604	    -14.62037372	      8.51829670	     -9.32243001	      5.49901810	      2.31016312	     30.20893778	    -18.35568609	     -3.16033636	     78.74114432	     45.12227129	      0.00000000	      0.00000000	     -3.42924420	     -5.89560363	     -3.63190815	     24.68079408	     45.42036473	      0.00000000	      0.00000000
     24.14664286	     -4.11959317	     -4.44223171	      5.78764958	      0.85722934	      0.93096791	      0.49895521	      7.71652436	      3.28923535	    -17.60307453	     13.10616323	     13.10616323	     10.97699832	     -0.87650788	     -6.03288619	     32.99146544	     -7.61092446	      1.37176889	     30.69625146	     30.69625146	     10.16945822	    -12.85546057	      8.19318710	     -9.30664503	      5.45087984	      2.36197232	     32.01676097	    -18.37476410	     -3.16346283	     80.96242220	     45.06282892	      0.00000000	      0.00000000	     -4.28746076	     -5.83871729	     -3.37810555	     24.23038477	     45.37165200	      0.00000000	      0.00000000
     24.16071429	     -4.28563817	     -4.46158759	      5.99600091	      0.85623004	      0.93042263	      0.49855685	      7.35103198	      3.34104954	    -17.71006189	     12.88677777	     12.88677777	     11.27367310	     -0.78823688	     -6.13790222	     32.93882137	     -7.26998523	      1.26638644	     26.91582420	     26.91582420	     10.23005540	    -10.92843850	      8.43570888	     -9.19912485	      5.40077673	      2.46070874	     33.78318288	    -18.34194131	     -3.18898600	     82.63929671	     45.01921860	      0.00000000	      0.00000000	     -5.14860752	     -5.79822844	     -3.24176242	     23.92639423	     45.33559040	      0.00000000	      0.00000000
     24.17478571	     -4.35249717	     -4.54469918	      6.22529299	      0.85547794	      0.92990306	      0.49796603	      6.81376123	      3.47345947	    -17.92240709	     12.56876684	     12.56876684	     11.54507685	     -0.53920869	     -6.24315166	     32.83408571	     -7.00737415	      1.15813492	     23.64351875	     23.64351875	     10.28294451	     -8.96865456	      8.66446872	     -9.19367257	      5.44121185	      2.34480691	     35.48890878	    -18.16455791	     -3.04446643	     84.87117504	     44.95336815	      0.00000000	      0.00000000	     -6.05993065	     -5.77152360	     -3.03978593	     23.71773138	     45.28544089	      0.00000000	      0.00000000
     24.18885714	     -4.39040912	     -4.63177428	      6.45049561	      0.85492833	      0.92939225	      0.49726505	      6.20354184	      3.61905297	    -18.14554902	     12.19496137	     12.19496137	     11.84154662	     -0.25994865	     -6.34676216	     32.75698761	     -6.77872289	      0.96267139	     20.96380073	     20.96380073	     10.21154930	     -7.16182523	      8.98556044	     -9.20151666	      5.46892759	      2.25353896	     37.01632124	    -18.05404167	     -2.82079657	     87.26966608	     44.88083095	      0.00000000	      0.00000000	     -6.98374532	     -5.78823036	     -2.78358391	     23.71347116	     45.22308013	      0.00000000	      0.00000000
     24.20292857	     -4.42867484	     -4.71651431	      6.68243832	      0.85454615	      0.92880893	      0.49636761	      5.56050248	      3.76636395	    -18.35107424	     11.78456349	     11.78456349	     12.14615321	     -0.00363103	     -6.42821604	     32.77660609	     -6.54781540	      0.73785702	     18.99101153	     18.99101153	     10.03978093	     -5.74236135	      9.34387467	     -9.15352100	      5.53762828	      2.23027236	     38.40256577	    -18.01892160	     -2.60382131	     89.62866456	     44.81128626	      0.00000000	      0.00000000	     -7.84533310	     -5.81039743	     -2.46471862	     23.90365887	     45.14930026	      0.00000000	      0.00000000
